# AST/ASF file generated using VICON BodyLanguage
# -----------------------------------------------
:version 1.10
:name VICON
:units
  mass 1.0
  length 0.45
  angle deg
:documentation
   .ast/.asf automatically generated from VICON data using
   VICON BodyBuilder and BodyLanguage model FoxedUp or BRILLIANT.MOD
:root
   order TX TY TZ RX RY RZ
   axis XYZ
   position 0 0 0  
   orientation 0 0 0 
:bonedata
  begin
     id 1 
     name lhipjoint
     direction 0.499407 -0.589134 0.635228 
     length 2.99786 
     axis 0 0 0  XYZ
  end
  begin
     id 2 
     name lfemur
     direction 0.34202 -0.939693 0  
     length 6.89561  
     axis 0 0 20  XYZ
    dof rx ry rz
    limits (-160.0 20.0)
           (-70.0 70.0)
           (-60.0 70.0)
  end
  begin
     id 3 
     name ltibia
     direction 0.34202 -0.939693 0   
     length 8.00494   
     axis 0 0 20   XYZ
    dof rx
    limits (-10.0 170.0)
  end
  begin
     id 4 
     name lfoot
     direction 0.0680929 -0.194353 0.978565   
     length 2.06695   
     axis -90 7.62852e-016 20   XYZ
    dof rx rz
    limits (-45.0 90.0)
           (-70.0 20.0)
  end
  begin
     id 5 
     name ltoes
     direction 1.5346e-011 -4.21731e-011 1   
     length 1.04539   
     axis -90 7.62852e-016 20   XYZ
    dof rx
    limits (-90.0 20.0)
  end
  begin
     id 6 
     name rhipjoint
     direction -0.347526 -0.63762 0.687508   
     length 2.76989  
     axis 0 0 0  XYZ 
  end
  begin
     id 7 
     name rfemur
     direction -0.34202 -0.939693 0   
     length 6.97892   
     axis 0 0 -20   XYZ
    dof rx ry rz
    limits (-160.0 20.0)
           (-70.0 70.0)
           (-70.0 60.0)
  end
  begin
     id 8 
     name rtibia
     direction -0.34202 -0.939693 0   
     length 7.77056   
     axis 0 0 -20   XYZ
    dof rx
    limits (-10.0 170.0)
 end
 begin
     id 9 
     name rfoot
     direction -0.102685 -0.282124 0.953867   
     length 2.15099  
     axis -90 -7.62852e-016 -20   XYZ
    dof rx rz
    limits (-45.0 90.0)
           (-20.0 70.0)
  end
  begin
     id 10 
     name rtoes
     direction -0.000106751 -0.00118973 0.999999   
     length 1.0765   
     axis -90 -7.62852e-016 -20   XYZ
    dof rx
    limits (-90.0 20.0)
  end
  begin
     id 11 
     name lowerback
     direction -0.0190651 0.988667 0.148909   
     length 1.90627   
     axis 0 0 0   XYZ
    dof rx ry rz
    limits (-20.0 45.0)
           (-30.0 30.0)
           (-30.0 30.0)
  end
  begin
     id 12 
     name upperback
     direction -0.0180344 0.995767 -0.0901298   
     length 1.88167   
     axis 0 0 0   XYZ
    dof rx ry rz
    limits (-20.0 45.0)
           (-30.0 30.0)
           (-30.0 30.0)
  end
  begin
     id 13 
     name thorax
     direction -0.00329861 0.986394 -0.164366   
     length 1.91528   
     axis 0 0 0   XYZ
    dof rx ry rz
    limits (-20.0 45.0)
           (-30.0 30.0)
           (-30.0 30.0)
  end
  begin
     id 14 
     name lowerneck
     direction -0.0177752 0.978637 -0.204826   
     length 2.09812   
     axis 0 0 0   XYZ
    dof rx ry rz
    limits (-20.0 45.0)
           (-30.0 30.0)
           (-30.0 30.0)
  end
  begin
     id 15 
     name upperneck
     direction 0.108032 0.994134 0.00511541   
     length 2.11937   
     axis 0 0 0   XYZ
    dof rx ry rz
    limits (-20.0 45.0)
           (-30.0 30.0)
           (-30.0 30.0)
  end
  begin
     id 16
     name head
     direction 0.0423659 0.998938 0.0181058  
     length 2.14816  
     axis 0 0 0   XYZ
    dof rx ry rz
    limits (-20.0 45.0)
           (-30.0 30.0)
           (-30.0 30.0)
  end
  begin
     id 17 
     name lclavicle
     direction 0.869509 0.396908 0.293968  
     length 4.73713  
     axis 0 0 0   XYZ
    dof ry rz
    limits (-20.0 10.0)
           (0.0 20.0)
  end
  begin
     id 18 
     name lhumerus
     direction 1 -4.49e-011 3.63829e-027   
     length 4.72096   
     axis 180 -30 -90   XYZ
    dof rx ry rz
    limits (-60.0 90.0)
           (-90.0 90.0)
           (-90.0 90.0)
  end
  begin
     id 19
     name lradius
     direction 1 -4.48932e-011 7.19196e-027   
     length 3.18148   
     axis 180 -30 -90   XYZ
    dof rx
    limits (-10.0 170.0)
  end
  begin
     id 20
     name lwrist
     direction 1 -4.48995e-011 1.85462e-026   
     length 1.59074   
     axis -1.20349e-014 90 90   XYZ
    dof ry
    limits (-180.0 0.0)
 end
  begin
     id 21 
     name lhand
     direction 1 -4.48943e-011 3.70924e-026   
     length 0.848715   
     axis -2.36681e-014 90 90   XYZ
    dof rx rz
    limits (-90.0 90.0)
           (-45.0 45.0)
  end
  begin
     id 22 
     name lfingers
     direction 1 -4.48949e-011 7.41849e-026   
     length 0.684256   
     axis -4.73363e-014 90 90   XYZ
    dof rx
    limits (0.0 90.0)
  end
  begin
     id 23
     name lthumb
     direction 0.707107 -6.35018e-011 0.707107   
     length 0.982458   
     axis -90 45 2.85299e-015   XYZ
    dof rx rz
    limits (-45.0 45.0)
           (-45.0 45.0)
  end
  begin
     id 24 
     name rclavicle
     direction -0.923214 0.372787 0.0932992   
     length 4.28107  
     axis 0 0 0   XYZ 
    dof ry rz
    limits (-10.0 20.0)
           (-20.0 0.0)
  end
  begin
     id 25 
     name rhumerus
     direction -1 -4.48968e-011 6.59881e-018  
     length 4.76918   
     axis 180 30 90   XYZ
    dof rx ry rz
    limits (-90.0 60.0)
           (-90.0 90.0)
           (-90.0 90.0)
  end
  begin
     id 26 
     name rradius
     direction -1 0.000264575 -0.000152753   
     length 3.36438   
     axis 180 30 90   XYZ
    dof rx
    limits (-10.0 170.0)
  end
  begin
     id 27 
     name rwrist
     direction -1 -4.86632e-005 -0.00030086   
     length 1.68219   
     axis -1.20349e-014 -90 -90   XYZ
    dof ry
    limits (-180.0 0.0)
  end
  begin
     id 28
     name rhand
     direction -1 -4.48915e-011 3.70924e-026   
     length 0.767694   
     axis -2.36681e-014 -90 -90   XYZ
    dof rx rz
    limits (-90.0 90.0)
           (-45.0 45.0)
  end
  begin
     id 29
     name rfingers
     direction -1 -4.49015e-011 7.41849e-026   
     length 0.618935   
     axis -4.73363e-014 -90 -90   XYZ
    dof rx
    limits (0.0 90.0)
  end
  begin
     id 30
     name rthumb
     direction -0.707107 -6.34859e-011 0.707107   
     length 0.88867   
     axis -90 -45 -2.85299e-015   XYZ
    dof rx rz
    limits (-45.0 45.0)
           (-45.0 45.0)
  end
:hierarchy
  begin
    root lhipjoint rhipjoint lowerback
    lhipjoint lfemur
    lfemur ltibia
    ltibia lfoot
    lfoot ltoes
    rhipjoint rfemur
    rfemur rtibia
    rtibia rfoot
    rfoot rtoes
    lowerback upperback
    upperback thorax
    thorax lowerneck lclavicle rclavicle
    lowerneck upperneck
    upperneck head
    lclavicle lhumerus
    lhumerus lradius
    lradius lwrist
    lwrist lhand lthumb
    lhand lfingers
    rclavicle rhumerus
    rhumerus rradius
    rradius rwrist
    rwrist rhand rthumb
    rhand rfingers
  end

#!OML:ASF C:\Documents and Settings\Administrator\Desktop\New Folder (2)\VR_Jason.ASF
:FULLY-SPECIFIED
:DEGREES
178
root -0.385876 17.6583 -0.573692 14.8792 -5.40153 1.21446
lowerback -21.856 1.87182 -1.21383
upperback 5.30444 3.37925 -2.75258
thorax 18.8494 1.56674 -1.31105
lowerneck 23.2337 -7.8913 -9.90819
upperneck 27.9685 -14.8919 14.3256
head 7.02937 -7.8033 6.66757
rclavicle 1.47101e-014 -5.56597e-015
rhumerus 17.7593 -16.0889 -89.9556
rradius 18.4759
rwrist 11.956
rhand -24.0597 22.9601
rfingers 7.12502
rthumb 2.41967 -7.00592
lclavicle 1.47101e-014 -5.56597e-015
lhumerus 3.49705 15.0346 73.3177
lradius 44.2802
lwrist 5.01284
lhand -21.3863 32.3421
lfingers 7.12502
lthumb 5.00139 62.2631
rfemur -25.8738 -6.29849 11.3618
rtibia 26.9347
rfoot -11.1725 -18.349
rtoes -19.2532
lfemur -23.1231 -3.10586 -14.8583
ltibia 25.1887
lfoot -20.9408 17.6228
ltoes -7.82156
179
root -0.379626 17.6552 -0.588504 14.8119 -5.69103 1.3091
lowerback -21.7879 2.013 -1.00004
upperback 5.74709 3.54732 -2.90018
thorax 18.7685 1.63924 -1.36869
lowerneck 22.8981 -7.37126 -9.37281
upperneck 27.2674 -13.6684 12.7529
head 6.51513 -7.18602 6.01541
rclavicle -7.15625e-015 4.77083e-015
rhumerus 17.5422 -8.33687 -87.1783
rradius 19.4624
rwrist 5.60544
rhand -23.5978 24.133
rfingers 7.12502
rthumb 2.86574 -5.82748
lclavicle -7.15625e-015 4.77083e-015
lhumerus 4.20951 12.3186 73.0635
lradius 44.6515
lwrist 4.70261
lhand -20.202 30.8
lfingers 7.12502
lthumb 6.14477 60.6909
rfemur -26.0329 -6.06014 11.1913
rtibia 27.0576
rfoot -10.9063 -18.312
rtoes -19.2119
lfemur -23.0521 -3.00557 -15.0288
ltibia 25.1301
lfoot -20.758 17.9075
ltoes -9.11557
180
root -0.390977 17.6481 -0.591264 14.5506 -5.30775 1.61016
lowerback -21.797 1.83911 -1.25317
upperback 5.88148 3.38991 -2.88117
thorax 18.9186 1.53955 -1.26302
lowerneck 22.8288 -6.79583 -8.82924
upperneck 26.5759 -12.3843 10.9784
head 5.99598 -6.55584 5.31544
rclavicle 2.22639e-014 -1.70955e-014
rhumerus 17.2805 -1.26877 -84.4102
rradius 21.6781
rwrist 2.54427
rhand -24.4362 22.7065
rfingers 7.12502
rthumb 2.0561 -7.26329
lclavicle 2.22639e-014 -1.70955e-014
lhumerus 4.57118 8.95717 72.5079
lradius 45.4495
lwrist 5.50645
lhand -20.0138 32.3623
lfingers 7.12502
lthumb 6.32648 62.2478
rfemur -25.6652 -5.4064 10.7607
rtibia 27.1774
rfoot -11.0406 -19.247
rtoes -18.6307
lfemur -22.8436 -2.93763 -15.3048
ltibia 25.0753
lfoot -20.4317 17.6021
ltoes -8.90494
181
root -0.384193 17.6467 -0.600558 14.5524 -5.67603 1.60592
lowerback -21.8011 2.02954 -0.945843
upperback 5.75344 3.55377 -2.89515
thorax 18.7876 1.64777 -1.39056
lowerneck 23.0572 -6.17584 -8.24067
upperneck 25.6854 -11.0597 9.13458
head 5.40581 -5.91159 4.60436
rclavicle 2.98177e-015 -2.3059e-014
rhumerus 16.9743 5.1314 -81.7403
rradius 24.1058
rwrist -0.753081
rhand -24.4016 21.4073
rfingers 7.12502
rthumb 2.08948 -8.56218
lclavicle 2.98177e-015 -2.3059e-014
lhumerus 4.56194 5.14724 71.6482
lradius 46.4417
lwrist 7.02232
lhand -20.1055 33.191
lfingers 7.12502
lthumb 6.238 63.0791
rfemur -25.87 -5.39989 10.7144
rtibia 27.2929
rfoot -11.1004 -18.8598
rtoes -18.3132
lfemur -22.8122 -2.79621 -15.3909
ltibia 25.0315
lfoot -20.5102 17.7125
ltoes -7.51668
182
root -0.381655 17.6437 -0.600093 14.4984 -5.70129 1.75565
lowerback -21.9878 2.06571 -0.846286
upperback 5.8104 3.58529 -2.9137
thorax 18.9764 1.67211 -1.44889
lowerneck 23.2129 -5.41522 -7.9304
upperneck 24.4111 -9.72967 7.98966
head 4.77445 -5.2653 4.17207
rclavicle -1.19271e-014 1.55052e-014
rhumerus 17.0937 11.2657 -78.8714
rradius 26.7803
rwrist -5.03113
rhand -24.0003 21.0379
rfingers 7.12502
rthumb 2.47711 -8.92747
lclavicle -1.19271e-014 1.55052e-014
lhumerus 5.14904 1.08103 70.6598
lradius 47.3328
lwrist 9.24074
lhand -20.5423 34.405
lfingers 7.12502
lthumb 5.81625 64.3052
rfemur -25.8808 -5.86764 10.6054
rtibia 27.4326
rfoot -11.2744 -18.5097
rtoes -18.4601
lfemur -22.7569 -2.74153 -15.6142
ltibia 24.9925
lfoot -20.4473 17.7708
ltoes -10.0896
183
root -0.380073 17.6404 -0.605623 14.4518 -5.71528 1.95195
lowerback -22.099 2.01505 -0.90613
upperback 6.01311 3.55352 -2.94278
thorax 19.2937 1.6516 -1.45527
lowerneck 22.6969 -4.69521 -7.30588
upperneck 23.1225 -8.37036 6.61113
head 4.23014 -4.56147 3.58412
rclavicle -7.15625e-015 3.97569e-015
rhumerus 17.8912 16.6848 -75.9693
rradius 29.5251
rwrist -8.8559
rhand -23.9859 20.7865
rfingers 7.12502
rthumb 2.49102 -9.17865
lclavicle -7.15625e-015 3.97569e-015
lhumerus 6.11226 -2.6779 69.2417
lradius 48.5249
lwrist 11.2488
lhand -20.6641 35.9719
lfingers 7.12502
lthumb 5.6987 65.8753
rfemur -25.9299 -6.18171 10.4323
rtibia 27.5734
rfoot -11.4042 -18.3825
rtoes -18.6451
lfemur -22.776 -2.71314 -15.8675
ltibia 24.9934
lfoot -20.3555 17.9677
ltoes -11.2782
184
root -0.380321 17.6351 -0.613875 14.3867 -5.60839 2.11143
lowerback -22.1287 1.92955 -0.949384
upperback 6.19782 3.4637 -2.95781
thorax 19.5407 1.60812 -1.48045
lowerneck 22.352 -4.14722 -6.04276
upperneck 21.4217 -7.04441 4.38328
head 3.5299 -3.83713 2.62852
rclavicle -2.42517e-014 7.15625e-015
rhumerus 18.665 21.0164 -73.202
rradius 32.5023
rwrist -11.7039
rhand -23.778 20.3508
rfingers 7.12502
rthumb 2.69173 -9.612
lclavicle -2.42517e-014 7.15625e-015
lhumerus 6.88657 -6.04435 67.4582
lradius 50.1512
lwrist 12.2429
lhand -18.8861 37.854
lfingers 7.12502
lthumb 7.41511 67.7041
rfemur -25.91 -6.22269 10.2397
rtibia 27.7248
rfoot -11.665 -18.5036
rtoes -18.4064
lfemur -22.8002 -2.6216 -16.0654
ltibia 25.0083
lfoot -20.148 17.985
ltoes -11.4185
185
root -0.383715 17.6294 -0.6195 14.3142 -5.45424 2.22812
lowerback -22.1742 1.94645 -0.889316
upperback 6.17408 3.46018 -2.91216
thorax 19.5367 1.60977 -1.46275
lowerneck 23.1069 -3.69604 -4.74233
upperneck 19.1861 -5.89896 1.82414
head 2.85558 -3.2024 1.67408
rclavicle -8.15017e-015 2.38542e-014
rhumerus 18.7523 24.6749 -70.3654
rradius 35.8405
rwrist -14.347
rhand -23.6744 19.7963
rfingers 7.12502
rthumb 2.79186 -10.1652
lclavicle -8.15017e-015 2.38542e-014
lhumerus 7.38177 -9.90416 65.6555
lradius 52.0396
lwrist 13.6269
lhand -16.3535 38.2108
lfingers 7.12502
lthumb 9.85907 67.96
rfemur -25.8757 -6.24414 10.1079
rtibia 27.8179
rfoot -11.7369 -18.6976
rtoes -18.3559
lfemur -22.8178 -2.46283 -16.214
ltibia 25.0719
lfoot -20.0931 17.6319
ltoes -10.6652
186
root -0.387364 17.6286 -0.620028 14.3251 -5.55774 2.26094
lowerback -22.2223 2.04609 -0.745355
upperback 6.04007 3.54754 -2.91648
thorax 19.4079 1.66482 -1.51413
lowerneck 22.7212 -3.0447 -4.06683
upperneck 18.7793 -4.72896 -0.0553792
head 2.63194 -2.57817 0.868854
rclavicle -1.90833e-014 2.46493e-014
rhumerus 18.9181 27.8804 -67.5509
rradius 39.1878
rwrist -16.1859
rhand -23.727 19.105
rfingers 7.12502
rthumb 2.74105 -10.8571
lclavicle -1.90833e-014 2.46493e-014
lhumerus 7.4978 -14.0227 63.5247
lradius 54.7319
lwrist 16.2098
lhand -16.67 36.9822
lfingers 7.12502
lthumb 9.55376 66.7456
rfemur -25.9464 -6.17797 10.0693
rtibia 27.8335
rfoot -11.6247 -18.6652
rtoes -18.4778
lfemur -22.9274 -2.20062 -16.3232
ltibia 25.1775
lfoot -19.6703 17.8574
ltoes -12.4423
